<svg width="25" height="25" viewBox="0 0 25 25" fill="none" xmlns="http://www.w3.org/2000/svg">
<path fill-rule="evenodd" clip-rule="evenodd" d="M9.5 2.33203C8.39543 2.33203 7.5 3.22746 7.5 4.33203H6.5C5.39543 4.33203 4.5 5.22746 4.5 6.33203V11.332H6.5V6.33203H7.5C7.5 7.4366 8.39543 8.33203 9.5 8.33203H15.5C16.6046 8.33203 17.5 7.4366 17.5 6.33203H18.5V20.332H6.5V17.332H4.5V20.332C4.5 21.4366 5.39543 22.332 6.5 22.332H18.5C19.6046 22.332 20.5 21.4366 20.5 20.332V6.33203C20.5 5.22746 19.6046 4.33203 18.5 4.33203H17.5C17.5 3.22746 16.6046 2.33203 15.5 2.33203H9.5ZM9.5 4.33203H15.5V6.33203H9.5V4.33203ZM4.5 15.332H13.0871L10.7933 17.6248L12.2072 19.0393L16.2072 15.0411C16.3948 14.8536 16.5002 14.5993 16.5002 14.3341C16.5003 14.0689 16.395 13.8145 16.2075 13.6269L12.2075 9.62508L10.793 11.039L13.085 13.332H4.5V15.332Z" fill="white"/>
</svg>
