<svg width="24" height="24" viewBox="0 0 24 24" fill="none" xmlns="http://www.w3.org/2000/svg">
<path d="M2 22L2 19.3992C3.43868 19.3992 4.60002 20.5609 4.60002 22L2 22ZM7.12205 22C6.69738 22 6.34204 21.6879 6.27271 21.2631C5.9607 19.4599 4.53936 18.0381 2.73667 17.726C2.312 17.6566 2 17.3012 2 16.8764C2 16.3475 2.45934 15.9314 2.97934 16.0094C5.5447 16.4256 7.57272 18.4455 7.98872 21.0117C8.07539 21.5319 7.65072 22 7.12205 22Z" fill="#74D05E"/>
<path fill-rule="evenodd" clip-rule="evenodd" d="M21 8.27429V15.6543C21 16.58 20.5114 17.4286 19.7143 17.8786L13.2857 21.5814C12.8871 21.8129 12.45 21.9286 12 21.9286C11.55 21.9286 11.1129 21.8129 10.7143 21.5814L10.0018 21.171C10.0022 21.0134 9.98942 20.8522 9.96239 20.6882C9.80096 19.6951 9.45877 18.7641 8.97085 17.9295L11.11 19.21V12.6971L5.17 9.3V14.5773C4.57937 14.3251 3.95256 14.1412 3.29958 14.0352L3.28786 14.0333L3.27611 14.0316C3.18316 14.0176 3.09107 14.0082 3 14.0032V8.27429C3 7.34857 3.48857 6.5 4.28571 6.03714L10.7143 2.34714C11.1129 2.11571 11.55 2 12 2C12.45 2 12.8871 2.11571 13.2857 2.34714L19.7143 6.05C20.5114 6.5 21 7.34857 21 8.27429ZM6.31 7.50286L12 10.87L17.69 7.50286L12 4.07L6.31 7.50286ZM12.89 19.21L18.83 15.6543V9.3L12.89 12.6971V19.21Z" fill="url(#paint0_linear_3397_173581)"/>
<defs>
<linearGradient id="paint0_linear_3397_173581" x1="3" y1="21.9286" x2="21" y2="21.9286" gradientUnits="userSpaceOnUse">
<stop stop-color="#4AC7FA"/>
<stop offset="1" stop-color="#E649F5"/>
</linearGradient>
</defs>
</svg>
