<svg width="40" height="40" viewBox="0 0 40 40" fill="none" xmlns="http://www.w3.org/2000/svg">
<path fill-rule="evenodd" clip-rule="evenodd" d="M29 16.2743V23.6543C29 24.58 28.5114 25.4286 27.7143 25.8786L21.2857 29.5814C20.8871 29.8129 20.45 29.9286 20 29.9286C19.55 29.9286 19.1129 29.8129 18.7143 29.5814L18.0018 29.171C18.0022 29.0134 17.9894 28.8522 17.9624 28.6882C17.801 27.6951 17.4588 26.7641 16.9708 25.9295L19.11 27.21V20.6971L13.17 17.3V22.5773C12.5794 22.3251 11.9526 22.1412 11.2996 22.0352L11.2879 22.0333L11.2761 22.0316C11.1832 22.0176 11.0911 22.0082 11 22.0032V16.2743C11 15.3486 11.4886 14.5 12.2857 14.0371L18.7143 10.3471C19.1129 10.1157 19.55 10 20 10C20.45 10 20.8871 10.1157 21.2857 10.3471L27.7143 14.05C28.5114 14.5 29 15.3486 29 16.2743ZM15.6704 27.8281L12.2857 25.8786C11.5941 25.4881 11.1347 24.7977 11.0253 24.0171L11.0323 24.0183C11.2863 24.0618 11.5349 24.121 11.7771 24.195C13.5676 24.7418 15.0071 26.0923 15.6704 27.8281ZM14.31 15.5029L20 18.87L25.69 15.5029L20 12.07L14.31 15.5029ZM20.89 27.21L26.83 23.6543V17.3L20.89 20.6971V27.21Z" fill="white"/>
<path d="M10 30L10 27.3992C11.4387 27.3992 12.6 28.5609 12.6 30L10 30ZM15.122 30C14.6974 30 14.342 29.6879 14.2727 29.2631C13.9607 27.4599 12.5394 26.0381 10.7367 25.726C10.312 25.6566 10 25.3012 10 24.8764C10 24.3475 10.4593 23.9314 10.9793 24.0094C13.5447 24.4256 15.5727 26.4455 15.9887 29.0117C16.0754 29.5319 15.6507 30 15.122 30Z" fill="white"/>
</svg>

