<svg width="25" height="25" viewBox="0 0 25 25" fill="none" xmlns="http://www.w3.org/2000/svg">
<path d="M17.09 9.83203H15.5V4.83203C15.5 4.28203 15.05 3.83203 14.5 3.83203H10.5C9.95 3.83203 9.5 4.28203 9.5 4.83203V9.83203H7.91C7.02 9.83203 6.57 10.912 7.2 11.542L11.79 16.132C12.18 16.522 12.81 16.522 13.2 16.132L17.79 11.542C18.42 10.912 17.98 9.83203 17.09 9.83203ZM5.5 19.832C5.5 20.382 5.95 20.832 6.5 20.832H18.5C19.05 20.832 19.5 20.382 19.5 19.832C19.5 19.282 19.05 18.832 18.5 18.832H6.5C5.95 18.832 5.5 19.282 5.5 19.832Z" fill="white"/>
</svg>
