<svg width="24" height="24" viewBox="0 0 24 24" fill="none" xmlns="http://www.w3.org/2000/svg">
<g opacity="0.4">
<path fill-rule="evenodd" clip-rule="evenodd" d="M2 12C2 6.48 6.48 2 12 2C17.52 2 22 6.48 22 12C22 17.52 17.52 22 12 22C6.48 22 2 17.52 2 12ZM11.94 18.43C12.6138 18.43 13.16 17.8838 13.16 17.21C13.16 16.5362 12.6138 15.99 11.94 15.99C11.2662 15.99 10.72 16.5362 10.72 17.21C10.72 17.8838 11.2662 18.43 11.94 18.43ZM13.3319 13.415C13.342 13.3946 13.3522 13.3742 13.3624 13.364C13.6395 12.9577 14.0255 12.6192 14.4168 12.2761C15.3197 11.4846 16.2508 10.6682 15.9383 8.93513C15.643 7.21448 14.2685 5.79926 12.5479 5.54472C10.4505 5.23928 8.5975 6.53232 8.03752 8.38534C7.86444 8.97586 8.31242 9.57656 8.92331 9.57656H9.12693C9.54437 9.57656 9.88036 9.2813 10.0229 8.91477C10.3487 8.00863 11.3058 7.38756 12.3646 7.61155C13.342 7.81518 14.0547 8.78241 13.9631 9.78019C13.8941 10.5576 13.3388 10.9875 12.7225 11.4647C12.3379 11.7624 11.9296 12.0785 11.601 12.5088L11.5908 12.4986C11.5732 12.5163 11.5589 12.5407 11.5442 12.5661C11.5334 12.5846 11.5223 12.6036 11.5094 12.6208C11.4941 12.6463 11.4763 12.6717 11.4585 12.6972C11.4407 12.7226 11.4228 12.7481 11.4076 12.7735C11.3159 12.9161 11.2447 13.0586 11.1836 13.2215C11.1785 13.2419 11.1683 13.2571 11.1581 13.2724C11.1479 13.2877 11.1378 13.303 11.1327 13.3233C11.1225 13.3335 11.1225 13.3437 11.1225 13.3539C11.0003 13.7204 10.9189 14.1582 10.9189 14.6775H12.9653C12.9653 14.4229 12.9959 14.1989 13.0671 13.9851C13.0875 13.9138 13.118 13.8426 13.1486 13.7713C13.1588 13.7306 13.169 13.6899 13.1893 13.6593C13.23 13.5779 13.2809 13.4964 13.3318 13.415L13.3319 13.415Z" fill="white"/>
</g>
</svg>
